<svg width="50" height="50" viewBox="0 0 50 50" fill="none" xmlns="http://www.w3.org/2000/svg">
<path d="M25 0C18.5936 0 12.1872 2.43607 7.31234 7.3089C-2.43745 17.0545 -2.43745 32.9236 7.31234 42.6692C12.1872 47.542 18.6152 50 25 50C31.3848 50 37.8128 47.542 42.6877 42.6692C52.4374 32.9236 52.4374 17.0545 42.6877 7.3089C37.8128 2.43607 31.4064 0 25 0ZM25 2.56544C30.7377 2.56544 36.4757 4.76434 40.8761 9.1197C49.5905 17.8735 49.5905 32.1046 40.8761 40.8584C32.1185 49.6122 17.8821 49.6122 9.16772 40.8584C0.410173 32.1046 0.409499 17.8735 9.12391 9.1197C13.5243 4.76434 19.2623 2.56544 25 2.56544ZM25 15.5021C24.2666 15.5021 23.7058 16.0627 23.7058 16.7958V23.6954H16.8033C16.0699 23.6954 15.5091 24.256 15.5091 24.989C15.5091 25.7221 16.0699 26.2827 16.8033 26.2827H23.7058V33.1823C23.7058 33.9154 24.2666 34.476 25 34.476C25.7334 34.476 26.2942 33.9154 26.2942 33.1823V26.2827H33.1967C33.9301 26.2827 34.4909 25.7221 34.4909 24.989C34.4909 24.256 33.9301 23.6954 33.1967 23.6954H26.2942V16.7958C26.2942 16.0627 25.7334 15.5021 25 15.5021Z" fill="#127273"/>
</svg>
