<svg width="393" height="77" viewBox="0 0 393 77" fill="none" xmlns="http://www.w3.org/2000/svg">
<path d="M0 0H393V77H0V0Z" fill="#CBEDD5"/>
<rect x="115.293" y="36.0096" width="11" height="36" transform="rotate(-44.5494 115.293 36.0096)" fill="#97DECE" stroke="black"/>
<circle cx="123" cy="35" r="22.5" fill="#97DECE" stroke="black"/>
<circle cx="123" cy="35" r="10" fill="white"/>
<path d="M159.68 30.9766C159.555 30.8047 159.492 30.6484 159.492 30.5078C159.492 30.2734 159.602 30.0703 159.82 29.8984C160.039 29.7266 160.266 29.6406 160.5 29.6406C160.656 29.6406 160.797 29.6953 160.922 29.8047C161.062 29.8984 161.188 30.0234 161.297 30.1797C161.422 30.3359 161.531 30.5 161.625 30.6719C161.734 30.8281 161.828 30.9766 161.906 31.1172C162.266 30.8047 162.672 30.5391 163.125 30.3203C163.578 30.1016 164.086 29.9922 164.648 29.9922C165.461 29.9922 166.141 30.125 166.688 30.3906C167.25 30.6406 167.703 30.9766 168.047 31.3984C168.406 31.8203 168.672 32.3047 168.844 32.8516C169.016 33.3828 169.117 33.9297 169.148 34.4922C169.148 34.9453 169.062 35.4219 168.891 35.9219C168.719 36.4219 168.461 36.8906 168.117 37.3281C167.773 37.75 167.336 38.1016 166.805 38.3828C166.273 38.6641 165.648 38.8047 164.93 38.8047C164.508 38.8047 164.117 38.7656 163.758 38.6875C163.414 38.6094 163.094 38.5078 162.797 38.3828C162.797 39.3203 162.781 40.2109 162.75 41.0547C162.719 41.8984 162.664 42.6016 162.586 43.1641C162.555 43.3984 162.453 43.5703 162.281 43.6797C162.125 43.8047 161.961 43.8672 161.789 43.8672C161.523 43.8672 161.281 43.7969 161.062 43.6562C160.859 43.5156 160.758 43.3203 160.758 43.0703C160.758 42.4141 160.781 41.6484 160.828 40.7734C160.891 39.8984 160.922 38.9844 160.922 38.0312C160.922 37.125 160.914 36.2266 160.898 35.3359C160.883 34.4453 160.852 33.6484 160.805 32.9453C160.664 32.6484 160.5 32.3281 160.312 31.9844C160.125 31.6406 159.914 31.3047 159.68 30.9766ZM162.609 32.8516C162.656 33.4141 162.688 34.0078 162.703 34.6328C162.734 35.2422 162.758 35.8594 162.773 36.4844C163.039 36.7344 163.336 36.9141 163.664 37.0234C164.008 37.1172 164.414 37.1641 164.883 37.1641C165.352 37.1641 165.742 37.0625 166.055 36.8594C166.367 36.6562 166.617 36.4062 166.805 36.1094C166.992 35.8125 167.125 35.5 167.203 35.1719C167.281 34.8281 167.32 34.5234 167.32 34.2578C167.289 33.9766 167.219 33.6875 167.109 33.3906C167 33.0938 166.844 32.8281 166.641 32.5938C166.438 32.3594 166.18 32.1641 165.867 32.0078C165.57 31.8516 165.211 31.7734 164.789 31.7734C164.242 31.7734 163.797 31.875 163.453 32.0781C163.109 32.2812 162.828 32.5391 162.609 32.8516ZM172.195 42.6953C172.273 42.0859 172.328 41.4531 172.359 40.7969C172.406 40.1406 172.43 39.4844 172.43 38.8281V35.7578C172.43 35.5703 172.516 35.4297 172.688 35.3359C172.859 35.2266 173.055 35.1719 173.273 35.1719C173.461 35.1719 173.641 35.2109 173.812 35.2891C173.984 35.3672 174.102 35.4922 174.164 35.6641C174.18 36.1016 174.188 36.6094 174.188 37.1875C174.203 37.7656 174.211 38.3672 174.211 38.9922C174.211 39.6484 174.188 40.3125 174.141 40.9844C174.094 41.6406 174.055 42.2734 174.023 42.8828C173.977 43.1484 173.867 43.3438 173.695 43.4688C173.523 43.6094 173.336 43.6797 173.133 43.6797C172.914 43.6797 172.703 43.6094 172.5 43.4688C172.297 43.3281 172.195 43.1094 172.195 42.8125V42.6953ZM174.586 31.9141C174.508 32.3047 174.352 32.6016 174.117 32.8047C173.883 33.0078 173.602 33.1094 173.273 33.1094C173.148 33.1094 173 33.0938 172.828 33.0625C172.656 33.0156 172.492 32.9453 172.336 32.8516C172.195 32.7422 172.07 32.6016 171.961 32.4297C171.852 32.2422 171.797 32.0078 171.797 31.7266C171.797 31.2266 171.938 30.8672 172.219 30.6484C172.5 30.4141 172.867 30.2969 173.32 30.2969C173.773 30.2969 174.102 30.4375 174.305 30.7188C174.508 31 174.609 31.3203 174.609 31.6797C174.609 31.7109 174.602 31.75 174.586 31.7969C174.586 31.8438 174.586 31.8828 174.586 31.9141ZM182.883 35.1484C183.133 35.2266 183.312 35.3594 183.422 35.5469C183.531 35.7344 183.586 35.9297 183.586 36.1328C183.586 36.3359 183.516 36.5234 183.375 36.6953C183.234 36.8516 183.07 36.9297 182.883 36.9297C182.711 36.9297 182.531 36.9219 182.344 36.9062C182.156 36.8906 181.961 36.8828 181.758 36.8828C181.305 36.8828 180.867 36.9453 180.445 37.0703C180.039 37.1953 179.711 37.4609 179.461 37.8672C179.258 38.1797 179.117 38.4844 179.039 38.7812C178.961 39.0625 178.922 39.3281 178.922 39.5781C178.922 40.2031 179.133 40.7031 179.555 41.0781C179.977 41.4375 180.461 41.6172 181.008 41.6172C181.523 41.6172 181.945 41.5391 182.273 41.3828C182.617 41.2109 182.992 40.9141 183.398 40.4922C183.508 40.3828 183.633 40.3281 183.773 40.3281C183.961 40.3281 184.148 40.4219 184.336 40.6094C184.539 40.7812 184.641 40.9766 184.641 41.1953C184.641 41.3984 184.547 41.625 184.359 41.875C184.172 42.125 183.914 42.3594 183.586 42.5781C183.273 42.7812 182.914 42.9531 182.508 43.0938C182.117 43.2344 181.711 43.3047 181.289 43.3047C180.852 43.3047 180.383 43.2344 179.883 43.0938C179.383 42.9688 178.922 42.7578 178.5 42.4609C178.078 42.1484 177.727 41.7578 177.445 41.2891C177.164 40.8203 177.023 40.2422 177.023 39.5547C177.023 38.7734 177.273 37.9297 177.773 37.0234C177.992 36.6328 178.258 36.3125 178.57 36.0625C178.898 35.8125 179.242 35.6172 179.602 35.4766C179.961 35.3203 180.328 35.2188 180.703 35.1719C181.094 35.1094 181.469 35.0781 181.828 35.0781C182.219 35.0781 182.57 35.1016 182.883 35.1484ZM186.258 32.0078C186.148 31.8828 186.094 31.7266 186.094 31.5391C186.094 31.3047 186.18 31.1016 186.352 30.9297C186.523 30.7422 186.742 30.6484 187.008 30.6484C187.242 30.6484 187.461 30.7422 187.664 30.9297C187.867 31.1172 188.047 31.3516 188.203 31.6328C188.375 31.9141 188.516 32.2188 188.625 32.5469C188.734 32.875 188.82 33.1797 188.883 33.4609C188.992 33.9609 189.062 34.6016 189.094 35.3828C189.141 36.1484 189.172 36.9609 189.188 37.8203C190.203 37.5547 190.945 37.2344 191.414 36.8594C191.898 36.4688 192.141 36.0156 192.141 35.5C192.141 35.25 192.078 35 191.953 34.75C191.828 34.5 191.766 34.2891 191.766 34.1172C191.766 33.9297 191.867 33.7734 192.07 33.6484C192.273 33.5078 192.5 33.4375 192.75 33.4375C192.891 33.4375 193.031 33.4766 193.172 33.5547C193.312 33.6172 193.438 33.7344 193.547 33.9062C193.672 34.0625 193.773 34.2812 193.852 34.5625C193.93 34.8438 193.969 35.1953 193.969 35.6172C193.969 36.0078 193.898 36.3672 193.758 36.6953C193.617 37.0234 193.43 37.3203 193.195 37.5859C192.961 37.8516 192.695 38.0859 192.398 38.2891C192.117 38.4922 191.828 38.6562 191.531 38.7812C192.188 39.1562 192.766 39.6484 193.266 40.2578C193.766 40.8672 194.117 41.5703 194.32 42.3672C194.32 42.3984 194.32 42.4297 194.32 42.4609C194.336 42.4922 194.344 42.5234 194.344 42.5547C194.344 42.8047 194.242 42.9922 194.039 43.1172C193.852 43.2578 193.641 43.3281 193.406 43.3281C193.109 43.3281 192.93 43.2266 192.867 43.0234C192.648 42.4609 192.398 41.9922 192.117 41.6172C191.852 41.2266 191.562 40.9062 191.25 40.6562C190.938 40.4062 190.602 40.2188 190.242 40.0938C189.898 39.9531 189.539 39.8438 189.164 39.7656C189.133 40.1719 189.117 40.5938 189.117 41.0312C189.117 41.4688 189.086 41.875 189.023 42.25C188.977 42.625 188.875 42.9297 188.719 43.1641C188.578 43.4141 188.352 43.5391 188.039 43.5391C187.82 43.5391 187.633 43.4766 187.477 43.3516C187.32 43.2422 187.242 43.0703 187.242 42.8359C187.242 42.0391 187.266 41.1797 187.312 40.2578C187.375 39.3359 187.406 38.4219 187.406 37.5156C187.406 36.8438 187.383 36.2109 187.336 35.6172C187.305 35.0078 187.227 34.4609 187.102 33.9766L186.82 33.0859C186.773 32.9297 186.695 32.7656 186.586 32.5938C186.492 32.4062 186.383 32.2109 186.258 32.0078ZM200.039 31.1875C200.148 31.1094 200.273 31.0703 200.414 31.0703C201.133 31.0703 201.812 31.2109 202.453 31.4922C203.094 31.7578 203.648 32.1406 204.117 32.6406C204.602 33.1406 204.977 33.7422 205.242 34.4453C205.523 35.1484 205.664 35.9219 205.664 36.7656C205.664 37.5312 205.555 38.2656 205.336 38.9688C205.133 39.6562 204.82 40.2734 204.398 40.8203C204.664 41.0859 204.906 41.2422 205.125 41.2891C205.344 41.3359 205.523 41.3594 205.664 41.3594C205.773 41.3594 205.922 41.3203 206.109 41.2422C206.312 41.1641 206.547 41.125 206.812 41.125C207.031 41.125 207.203 41.2188 207.328 41.4062C207.453 41.5781 207.516 41.75 207.516 41.9219C207.516 42.1094 207.461 42.2734 207.352 42.4141C207.242 42.5391 207.102 42.6484 206.93 42.7422C206.773 42.8203 206.594 42.8828 206.391 42.9297C206.188 42.9609 206 42.9766 205.828 42.9766C205.281 42.9766 204.797 42.8984 204.375 42.7422C203.953 42.5703 203.547 42.2891 203.156 41.8984C202.422 42.3672 201.555 42.6016 200.555 42.6016C199.992 42.6016 199.438 42.4688 198.891 42.2031C198.344 41.9219 197.852 41.5469 197.414 41.0781C196.992 40.6094 196.648 40.0625 196.383 39.4375C196.117 38.8125 195.984 38.1484 195.984 37.4453C195.984 36.5234 196.133 35.6797 196.43 34.9141C196.742 34.1484 197.109 33.4922 197.531 32.9453C197.969 32.3828 198.414 31.9531 198.867 31.6562C199.336 31.3438 199.727 31.1875 200.039 31.1875ZM200.414 32.7812C200.055 32.9531 199.719 33.1953 199.406 33.5078C199.094 33.8047 198.82 34.1562 198.586 34.5625C198.352 34.9531 198.164 35.3906 198.023 35.875C197.883 36.3594 197.812 36.8594 197.812 37.375C197.812 37.9219 197.891 38.4141 198.047 38.8516C198.219 39.2734 198.438 39.6406 198.703 39.9531C198.969 40.25 199.273 40.4844 199.617 40.6562C199.961 40.8125 200.312 40.8906 200.672 40.8906C200.906 40.8906 201.125 40.8672 201.328 40.8203C201.547 40.7578 201.758 40.6641 201.961 40.5391C201.82 40.3516 201.664 40.1484 201.492 39.9297C201.336 39.7109 201.188 39.4922 201.047 39.2734C200.922 39.0547 200.812 38.8516 200.719 38.6641C200.625 38.4766 200.578 38.3203 200.578 38.1953C200.578 37.9609 200.695 37.7578 200.93 37.5859C201.164 37.3984 201.414 37.3047 201.68 37.3047C201.82 37.3047 201.953 37.3828 202.078 37.5391C202.219 37.6797 202.352 37.8594 202.477 38.0781C202.602 38.2812 202.719 38.5 202.828 38.7344C202.953 38.9531 203.078 39.1406 203.203 39.2969C203.422 38.9062 203.578 38.5 203.672 38.0781C203.781 37.6406 203.836 37.1797 203.836 36.6953C203.789 36.0547 203.664 35.5 203.461 35.0312C203.273 34.5625 203.023 34.1719 202.711 33.8594C202.414 33.5312 202.062 33.2812 201.656 33.1094C201.266 32.9375 200.852 32.8281 200.414 32.7812ZM209.414 40.3984C209.414 39.8672 209.414 39.3906 209.414 38.9688C209.43 38.5312 209.438 38.1172 209.438 37.7266C209.453 37.3203 209.461 36.9062 209.461 36.4844C209.477 36.0469 209.492 35.5547 209.508 35.0078C209.508 34.6953 209.617 34.4688 209.836 34.3281C210.07 34.1719 210.312 34.0938 210.562 34.0938C210.75 34.0938 210.914 34.1641 211.055 34.3047C211.211 34.4297 211.289 34.6172 211.289 34.8672C211.289 35.4141 211.281 35.9141 211.266 36.3672C211.266 36.8047 211.258 37.2422 211.242 37.6797C211.227 38.1016 211.211 38.5312 211.195 38.9688C211.195 39.4062 211.195 39.8906 211.195 40.4219C211.195 40.7031 211.242 40.9453 211.336 41.1484C211.445 41.3516 211.578 41.5234 211.734 41.6641C211.906 41.8047 212.086 41.9062 212.273 41.9688C212.461 42.0312 212.641 42.0625 212.812 42.0625C213.141 42.0625 213.508 41.9375 213.914 41.6875C214.336 41.4219 214.695 41.0859 214.992 40.6797C214.961 40.1016 214.938 39.5781 214.922 39.1094C214.906 38.625 214.898 38.1797 214.898 37.7734C214.898 37.3516 214.898 36.9141 214.898 36.4609C214.898 36.0078 214.93 35.6016 214.992 35.2422C215.055 34.8672 215.164 34.5625 215.32 34.3281C215.477 34.0938 215.719 33.9766 216.047 33.9766C216.25 34.0078 216.438 34.0938 216.609 34.2344C216.781 34.3594 216.867 34.5391 216.867 34.7734C216.82 35.3359 216.773 35.9453 216.727 36.6016C216.68 37.2422 216.656 37.9297 216.656 38.6641C216.656 39.0391 216.664 39.4375 216.68 39.8594C216.695 40.2656 216.727 40.6797 216.773 41.1016C216.836 41.2578 216.93 41.4453 217.055 41.6641C217.195 41.8828 217.328 42.1016 217.453 42.3203C217.594 42.5391 217.711 42.75 217.805 42.9531C217.898 43.1406 217.945 43.2891 217.945 43.3984C217.945 43.6484 217.844 43.8594 217.641 44.0312C217.438 44.2031 217.219 44.2891 216.984 44.2891C216.844 44.2891 216.695 44.2266 216.539 44.1016C216.398 43.9922 216.266 43.8516 216.141 43.6797C216.016 43.5078 215.898 43.3281 215.789 43.1406C215.695 42.9688 215.625 42.8125 215.578 42.6719C215.172 43.0156 214.703 43.2969 214.172 43.5156C213.641 43.7344 213.086 43.8438 212.508 43.8438C212.008 43.8438 211.562 43.7422 211.172 43.5391C210.797 43.3359 210.477 43.0703 210.211 42.7422C209.945 42.4141 209.742 42.0469 209.602 41.6406C209.477 41.2188 209.414 40.8047 209.414 40.3984ZM220.617 42.6953C220.695 42.0859 220.75 41.4531 220.781 40.7969C220.828 40.1406 220.852 39.4844 220.852 38.8281V35.7578C220.852 35.5703 220.938 35.4297 221.109 35.3359C221.281 35.2266 221.477 35.1719 221.695 35.1719C221.883 35.1719 222.062 35.2109 222.234 35.2891C222.406 35.3672 222.523 35.4922 222.586 35.6641C222.602 36.1016 222.609 36.6094 222.609 37.1875C222.625 37.7656 222.633 38.3672 222.633 38.9922C222.633 39.6484 222.609 40.3125 222.562 40.9844C222.516 41.6406 222.477 42.2734 222.445 42.8828C222.398 43.1484 222.289 43.3438 222.117 43.4688C221.945 43.6094 221.758 43.6797 221.555 43.6797C221.336 43.6797 221.125 43.6094 220.922 43.4688C220.719 43.3281 220.617 43.1094 220.617 42.8125V42.6953ZM223.008 31.9141C222.93 32.3047 222.773 32.6016 222.539 32.8047C222.305 33.0078 222.023 33.1094 221.695 33.1094C221.57 33.1094 221.422 33.0938 221.25 33.0625C221.078 33.0156 220.914 32.9453 220.758 32.8516C220.617 32.7422 220.492 32.6016 220.383 32.4297C220.273 32.2422 220.219 32.0078 220.219 31.7266C220.219 31.2266 220.359 30.8672 220.641 30.6484C220.922 30.4141 221.289 30.2969 221.742 30.2969C222.195 30.2969 222.523 30.4375 222.727 30.7188C222.93 31 223.031 31.3203 223.031 31.6797C223.031 31.7109 223.023 31.75 223.008 31.7969C223.008 31.8438 223.008 31.8828 223.008 31.9141ZM232.805 36.4141C232.711 36.5547 232.492 36.8516 232.148 37.3047C231.805 37.7422 231.398 38.2578 230.93 38.8516C230.461 39.4297 229.945 40.0469 229.383 40.7031C228.836 41.3438 228.305 41.9453 227.789 42.5078H228.281C229.234 42.5078 230.031 42.4844 230.672 42.4375C231.312 42.3906 231.859 42.3672 232.312 42.3672C232.641 42.3672 232.867 42.4453 232.992 42.6016C233.133 42.7578 233.203 42.9609 233.203 43.2109C233.203 43.4453 233.07 43.6094 232.805 43.7031C232.539 43.8125 232.203 43.8828 231.797 43.9141C231.406 43.9453 230.969 43.9531 230.484 43.9375C230.016 43.9219 229.57 43.9141 229.148 43.9141C228.68 43.9141 228.227 43.9219 227.789 43.9375C227.352 43.9688 226.969 43.9609 226.641 43.9141C226.312 43.8828 226.047 43.8047 225.844 43.6797C225.656 43.5547 225.562 43.3516 225.562 43.0703C225.562 42.8672 225.602 42.6641 225.68 42.4609C226.055 42.0859 226.477 41.6328 226.945 41.1016C227.43 40.5703 227.906 40.0234 228.375 39.4609C228.844 38.8984 229.266 38.3594 229.641 37.8438C230.031 37.3125 230.32 36.8672 230.508 36.5078C230.117 36.5391 229.727 36.5625 229.336 36.5781C228.961 36.5938 228.594 36.6016 228.234 36.6016C227.953 36.6016 227.672 36.6016 227.391 36.6016C227.125 36.6016 226.891 36.5781 226.688 36.5312C226.484 36.4688 226.32 36.375 226.195 36.25C226.07 36.1094 226.008 35.9141 226.008 35.6641C226.008 35.4766 226.062 35.2969 226.172 35.125C226.297 34.9531 226.492 34.8516 226.758 34.8203C227.32 34.8672 227.914 34.8906 228.539 34.8906C229.336 34.8906 230.086 34.875 230.789 34.8438C231.492 34.8125 232.039 34.7734 232.43 34.7266C232.586 34.8828 232.719 35.0469 232.828 35.2188C232.938 35.3906 232.992 35.5859 232.992 35.8047C232.992 35.9922 232.93 36.1953 232.805 36.4141Z" fill="black"/>
</svg>
